<?xml version="1.0" encoding="UTF-8"?>
<svg xmlns="http://www.w3.org/2000/svg" xmlns:xlink="http://www.w3.org/1999/xlink" width="381px" height="459px"  viewBox="0 0 381 459" version="1.1">

<g id="surface1">
<path id="fumane" style="fill-rule:evenodd;fill:rgb(255,102,0);fill-opacity:1;stroke-width:0.1;stroke-linecap:butt;stroke-linejoin:round;stroke:rgb(0%,0%,0%);stroke-opacity:1;stroke-miterlimit:4;" d="M 114.655546 358.263153 L 114.385661 357.345341 L 114.362192 357.212268 L 114.262452 356.591913 L 114.280054 356.315983 L 114.522559 355.200519 L 114.637945 354.944158 L 114.751374 354.71128 L 114.370015 352.435342 L 113.186824 351.043947 L 113.063616 350.799328 L 113.100774 349.697562 L 113.124242 349.578188 L 114.575362 344.227874 L 115.435865 342.517495 L 115.965857 340.811031 L 116.253343 340.527273 L 116.628835 340.05956 L 116.832227 339.76406 L 116.881119 339.611418 L 117.2527 338.088907 L 118.852452 335.075197 L 118.999129 334.977349 L 119.673842 334.092806 L 119.728601 333.912766 L 120.321174 331.284576 L 120.679065 329.509618 L 120.684932 329.384373 L 120.389623 328.020375 L 120.358332 327.957753 L 120.287928 328.037988 L 120.115827 328.311962 L 120.055201 328.380455 L 119.957416 328.493958 L 119.546722 328.812942 L 119.323773 328.897091 L 117.606679 329.499833 L 117.450224 329.509618 L 116.577987 328.679869 L 116.333526 328.386326 L 116.104711 328.079084 L 116.016705 327.781627 L 115.803535 327.730746 L 115.602099 327.777713 L 115.361549 327.928399 L 115.15229 328.082998 L 114.958677 328.22977 L 114.708349 328.456776 L 113.087084 330.578115 L 111.264382 334.339382 L 110.951472 335.32373 L 110.857599 336.738608 L 109.578579 338.384407 L 109.373232 338.493997 L 109.220688 338.630984 L 108.44428 339.611418 L 106.975558 342.059568 L 107.186773 342.280704 L 107.738277 342.812996 L 107.759789 343.488145 L 107.765656 343.726893 L 107.73241 344.903023 L 107.607246 346.355084 L 107.583777 346.539037 L 107.114412 349.386406 L 107.069431 349.621241 L 106.977514 349.766056 L 106.805413 349.948052 L 106.705673 350.036115 L 106.570731 350.100695 L 106.222618 351.33749 L 106.009448 354.873707 L 106.066163 355.779777 L 107.194595 355.519502 L 108.080522 355.308151 L 108.291736 355.290539 L 108.350407 355.36686 L 108.506862 355.88741 L 108.54402 356.081148 L 109.707655 356.11833 L 110.556423 356.243575 L 110.7031 356.286628 L 112.032968 356.865887 L 112.517979 357.278804 L 112.496466 357.400136 L 112.49451 357.51951 L 112.492555 357.658454 L 112.666611 357.951997 L 112.932584 358.361 L 113.192691 358.552782 L 114.039504 358.384484 Z M 114.655546 358.263153 " transform="matrix(1.997379,0,0,1.996086,-75.28399,-516.694414)"/>
<path id="san pietro in cariano" style="fill-rule:nonzero;fill:rgb(216, 63, 89);fill-opacity:1;stroke-width:0.1;stroke-linecap:butt;stroke-linejoin:round;stroke:rgb(0%,0%,0%);stroke-opacity:1;stroke-miterlimit:4;" d="M 118.463271 359.452981 L 115.248119 359.314037 L 114.655546 358.263153 L 114.04146 358.384484 L 113.192691 358.552782 L 112.93454 358.361 L 112.666611 357.953954 L 112.49451 357.658454 L 112.49451 357.51951 L 112.498422 357.400136 L 112.517979 357.278804 L 112.034924 356.865887 L 110.7031 356.286628 L 110.556423 356.243575 L 109.707655 356.11833 L 108.54402 356.081148 L 108.229154 359.398186 L 107.601379 361.658469 L 106.803458 362.359059 L 107.613113 363.16141 L 110.763726 366.439309 L 110.965162 367.636965 L 114.22725 369.77396 L 114.289832 369.815056 L 114.348503 369.850281 L 114.503002 369.912904 L 114.694659 369.981397 L 114.954766 370.061632 L 114.982146 370.067503 L 115.287233 370.143824 L 115.862205 370.239715 L 116.335482 370.284725 L 116.595588 370.29451 L 116.775512 370.300381 L 117.115801 370.292553 L 117.913722 370.235801 L 118.439802 370.206447 L 119.523254 370.155566 L 119.691443 370.361046 L 119.724689 370.419755 L 119.732512 370.435411 L 119.754025 370.476507 L 121.46134 369.717208 L 120.925482 369.210357 L 120.454161 368.713291 L 120.303573 368.519552 L 120.152985 368.304287 L 120.019998 368.092936 L 119.931992 367.948121 L 119.887012 367.773952 L 119.986752 367.742641 L 120.252725 367.660449 L 120.446338 367.589999 L 120.477629 367.578257 L 120.626262 367.499979 L 120.718179 367.408002 L 120.841387 365.059656 L 120.841387 365.004861 L 120.839432 364.991163 L 120.839432 364.957895 L 120.540211 363.877656 L 120.485452 363.783722 L 120.119738 363.525404 L 119.849853 363.472566 L 119.634728 363.529318 L 119.448937 363.640864 L 119.269014 363.822861 L 118.832896 363.77198 L 118.913079 362.196632 L 118.756624 359.834587 L 118.69013 359.636935 L 118.623637 359.554743 Z M 118.463271 359.452981 " transform="matrix(1.997379,0,0,1.996086,-75.28399,-516.694414)"/>
<path id="verona" style="fill-rule:nonzero;fill:rgb(163,73,164);fill-opacity:1;stroke-width:0.1;stroke-linecap:butt;stroke-linejoin:round;stroke:rgb(0%,0%,0%);stroke-opacity:1;stroke-miterlimit:4;" d="M 115.649035 385.552885 L 117.618413 391.470716 L 118.457403 394.008886 L 119.25728 395.415937 L 119.709044 396.202633 L 120.260548 397.163497 L 119.693398 397.97172 L 119.66993 398.003031 L 119.662107 398.014773 L 119.746202 398.507925 L 120.01022 399.658615 L 120.076713 399.94433 L 121.169943 398.637084 L 121.981554 397.529448 L 122.005022 397.504007 L 122.053914 397.455084 L 122.079338 397.427686 L 122.126274 397.378762 L 122.198635 397.304398 L 122.384425 397.11066 L 123.898128 398.153716 L 123.432674 399.44922 L 123.403339 399.529456 L 123.33489 399.705581 L 123.13541 400.192863 L 122.992644 400.53533 L 122.947663 400.637092 L 122.877259 400.723198 L 122.849879 400.754509 L 123.168656 400.774079 L 123.18039 400.774079 L 123.555882 400.797562 L 123.704515 400.803433 L 124.244285 400.83083 L 124.389006 400.836701 L 124.543505 400.844529 L 124.920953 400.852357 L 125.345337 400.609694 L 125.462678 399.715366 L 127.18564 400.208519 L 127.559176 402.053927 L 127.787992 403.237885 L 127.967915 404.132213 L 128.093079 404.750611 L 128.177174 405.044154 L 128.19673 405.114604 L 128.32385 405.54122 L 129.01812 405.462942 L 130.140685 404.388574 L 130.889713 404.355306 L 131.525312 404.960005 L 131.525312 405.006972 L 131.533134 405.120475 L 131.415793 406.292691 L 131.288673 406.564707 L 131.276939 406.801499 L 131.329743 406.860208 L 131.398192 406.924787 L 131.499888 406.991324 L 132.622453 406.711479 L 132.91385 406.613631 L 133.097685 406.322045 L 133.095729 406.31226 L 133.021413 405.88173 L 133.019457 405.864118 L 132.792598 405.185054 L 132.608763 404.77018 L 132.522713 404.302468 L 132.223492 402.987394 L 132.882559 402.323987 L 133.484911 402.089152 L 136.795891 401.17134 L 137.228098 401.05588 L 137.918456 401.529463 L 138.751579 400.525545 L 139.031243 399.521628 L 138.327195 398.687965 L 138.110114 398.547064 L 138.092513 398.535323 L 138.072956 398.527495 L 137.875431 398.435518 L 137.497983 398.31223 L 137.257434 398.249607 L 137.243744 398.245693 L 137.11858 398.206554 L 137.011017 398.173286 L 136.934745 397.979547 L 136.856518 397.752541 L 136.811537 397.582286 L 135.773066 393.639022 L 138.203987 391.877763 L 139.619905 391.582263 L 143.394383 394.155658 L 144.775099 394.895387 L 145.725563 394.77797 L 147.268601 393.909082 L 146.926356 393.455068 L 146.41201 392.725124 L 146.292713 392.49616 L 146.202751 392.292637 L 146.210574 392.114554 L 146.282935 391.92473 L 146.548908 391.709465 L 147.501328 391.149776 L 147.710587 391.051928 L 147.968738 390.938425 L 148.193642 390.856232 L 148.780348 390.535292 L 148.909424 390.429616 L 149.032632 390.323941 L 149.153885 390.171298 L 149.255581 389.993215 L 149.316207 389.879712 L 149.374878 389.768166 L 149.419858 389.684017 L 149.433548 389.548987 L 149.457016 389.337636 L 149.458972 389.181079 L 149.433548 389.004953 L 149.32403 388.62139 L 147.692986 384.102782 L 146.72492 382.84446 L 148.469394 381.613536 L 150.073058 380.002962 L 150.876846 379.087107 L 151.52809 377.104712 L 151.578938 376.885533 L 151.610229 376.595904 L 151.604362 375.541105 L 151.584805 375.257347 L 151.45573 374.615466 L 151.381414 374.451082 L 151.326654 374.364976 L 151.248427 374.298439 L 151.136953 374.18885 L 150.992232 373.981412 L 150.845555 373.627204 L 150.82991 373.286694 L 150.825998 371.54109 L 150.910093 370.175136 L 150.984409 369.261238 L 151.009833 369.006834 L 151.0157 368.955953 L 151.377502 366.952031 L 151.547647 366.210346 L 151.897715 365.177073 L 152.28103 364.439302 L 153.313633 363.973546 L 153.671524 363.938321 L 153.939454 363.88744 L 155.142202 363.609553 L 156.442735 363.100745 L 157.735444 362.304264 L 155.830604 357.88546 L 155.740642 357.816967 L 155.20674 357.36491 L 155.155892 357.276848 L 155.073753 357.128119 L 155.005304 356.995046 L 154.944677 356.834576 L 154.833203 355.950032 L 154.076352 354.650614 L 151.048947 355.531244 L 149.519598 355.065489 L 147.698853 354.016561 L 147.116058 355.386429 L 146.413966 357.368824 L 146.378763 359.529302 L 145.684494 362.918748 L 145.584754 363.106615 L 145.576931 363.1164 L 145.426343 363.274914 L 145.279667 363.359063 L 145.131034 363.398202 L 143.40025 362.934403 L 143.030625 362.73088 L 142.301153 362.243598 L 141.757472 362.177062 L 140.896969 362.143794 L 140.028644 362.218158 L 139.119249 362.331661 L 138.786782 362.396241 L 138.08469 362.662387 L 137.969304 362.740665 L 137.906722 362.787632 L 137.756134 362.899178 L 137.619236 363.00094 L 137.042308 363.198592 L 136.132913 363.245559 L 135.663548 363.259258 L 135.31348 363.255344 L 135.039683 363.235774 L 130.627651 362.834599 L 130.631562 362.721095 L 130.676543 362.071386 L 129.794528 361.936357 L 127.77039 362.134009 L 127.304937 362.541056 L 127.291247 363.18098 L 127.328405 363.462781 L 126.857084 366.081187 L 126.213663 368.699592 L 126.149125 368.783741 L 125.417698 368.783741 L 125.220173 368.730903 L 124.733207 368.599787 L 123.645844 368.920728 L 123.323156 369.032274 L 123.250795 369.057715 L 123.153011 369.09294 L 122.644532 369.271023 L 121.463296 369.719165 L 119.754025 370.476507 L 119.458716 370.601752 L 119.255324 370.756351 L 119.059755 370.981401 L 118.915035 371.165355 L 118.848541 371.249504 L 118.768358 371.382577 L 118.742934 371.454984 L 118.692086 371.588057 L 118.654928 371.758312 L 118.611903 372.010759 L 118.549321 372.318001 L 118.459359 372.727005 L 118.39091 372.99315 L 118.181651 373.390412 L 117.900032 373.64873 L 117.581255 373.830727 L 117.313326 373.907048 L 117.031707 373.985326 L 116.775512 373.977499 L 116.601455 373.94423 L 116.466513 373.903134 L 116.380463 373.875737 L 116.098844 373.762234 L 115.801579 373.607634 L 115.725307 373.562624 L 115.672504 373.627204 L 115.557118 373.746578 L 115.535605 373.768104 L 114.373927 374.472608 L 113.94172 374.713314 L 113.685524 374.838559 L 110.967118 375.932496 L 110.122261 376.304318 L 110.198532 378.163425 L 110.869333 378.642878 L 111.870646 379.832707 L 112.500377 381.169307 L 113.010812 381.210403 L 113.12033 381.239757 L 113.280697 381.280853 L 113.321766 381.304337 L 113.540803 381.423711 L 113.708993 381.584181 L 115.20705 383.042113 L 115.371328 383.276947 L 115.383062 383.298474 L 115.404574 383.331742 L 115.531694 383.543093 L 115.561029 383.601802 L 115.609922 383.701606 L 115.680326 383.850335 L 116.384374 385.545058 L 116.327659 385.545058 L 116.249432 385.547014 L 115.650991 385.552885 Z M 115.649035 385.552885 " transform="matrix(1.997379,0,0,1.996086,-75.28399,-516.694414)"/>
<path id="lago" style="fill-rule:nonzero;fill:#529eff;fill-opacity:1,stroke-width:2;stroke-linecap:butt;stroke-linejoin:round;stroke:rgb(0%,0%,0%);stroke-opacity:1;stroke-miterlimit:4;" d="M 511.643004 211.915678 L 515.428564 215.575663 L 519.09131 219.367146 L 524.27117 220.630973 L 526.539616 221.135043 L 527.428211 224.919219 L 532.095142 226.058856 L 532.095142 230.726981 L 531.589438 234.898342 L 529.068139 238.814015 L 525.282579 248.405953 L 521.114128 260.905425 L 521.114128 260.781234 L 520.355571 271.264426 L 518.838458 277.82464 L 517.957087 284.647846 L 514.164302 290.70399 L 505.834625 297.651388 L 505.581773 301.311374 L 504.317511 304.467289 L 500.654765 307.119135 L 495.099239 310.65493 L 493.083645 314.446412 L 489.796565 323.410089 L 486.769562 332.629454 L 485.12241 339.825234 L 483.482482 344.120786 L 481.71974 347.021014 L 478.179808 346.641135 L 476.164214 348.788911 L 475.152805 352.828775 L 477.421251 355.232239 L 476.792733 358.892224 L 474.011357 364.071725 L 470.854316 367.476023 L 466.693089 370.763435 L 463.911714 372.151454 L 463.283196 375.563057 L 463.7889 378.967355 L 461.766082 382.123271 L 456.586222 386.798701 L 454.946294 392.730654 L 450.655029 399.926434 L 447.620802 404.601865 L 445.222317 410.029748 L 442.448166 414.201108 L 439.038272 420.51294 L 436.134083 424.428613 L 431.459928 431.120323 L 427.797182 438.695982 L 425.023031 442.984228 L 422.241655 447.031398 L 421.360285 450.187314 L 419.843171 454.607057 L 417.950391 456.879024 L 412.900569 462.810977 L 410.249232 467.354911 L 407.850748 469.758374 L 406.586486 472.658603 L 405.705115 476.325893 L 403.559483 479.730191 L 401.406626 485.537953 L 398.502437 491.981281 L 394.846915 495.896954 L 394.969729 501.828907 L 393.582654 509.404566 L 391.054131 512.94036 L 387.897089 518.62393 L 386.257161 522.539604 L 385.245752 526.579468 L 385.122938 531.751663 L 385.498604 535.923024 L 386.510014 536.551285 L 388.402794 536.302903 L 391.184169 534.155127 L 394.088358 531.627472 L 397.498252 530.495141 L 402.042369 529.983766 L 405.575077 532.767108 L 409.237823 534.155127 L 411.766346 535.923024 L 411.130603 539.458818 L 410.754937 542.110664 L 413.78194 546.654598 L 416.433277 552.213978 L 417.444686 556.502224 L 418.456095 561.426037 L 419.337466 565.84578 L 419.337466 567.233799 L 422.624546 568.249244 L 424.011622 572.157612 L 423.758769 578.476748 L 423.383103 583.020683 L 425.145845 588.068687 L 426.287292 595.644345 L 427.674368 600.064089 L 428.685777 605.243589 L 429.444334 615.726781 L 424.64014 622.286995 L 421.483099 629.110202 L 418.708948 634.793772 L 416.563315 639.841776 L 416.310463 643.625953 L 413.406274 644.765589 L 413.153421 646.913365 L 411.88916 651.961369 L 406.962152 656.001233 L 403.429445 660.172594 L 402.042369 665.600477 L 403.935149 674.060084 L 403.935149 677.471688 L 399.766698 674.944033 L 393.076949 668.128132 L 385.498604 664.212458 L 382.724454 661.056543 L 369.460544 657.769131 L 364.287909 655.752851 L 361.889424 651.837178 L 360.242272 649.185332 L 357.215269 650.829038 L 353.552523 652.721127 L 347.368478 649.94509 L 341.682913 647.161747 L 341.177209 639.337706 L 339.667319 633.654136 L 339.912947 629.234393 L 341.430061 626.326859 L 341.560099 623.046752 L 339.912947 622.038613 L 339.912947 619.766646 L 341.935766 616.983303 L 340.042986 614.711336 L 337.767315 610.42309 L 336.38024 610.42309 L 332.970346 613.447509 L 333.981755 615.975164 L 335.498869 618.378627 L 337.897353 620.394907 L 339.161615 622.79837 L 338.525872 624.434771 L 338.150206 628.474635 L 337.644501 636.430173 L 335.246016 639.337706 L 330.701899 641.989552 L 328.173376 645.525346 L 324.257778 650.573351 L 317.185138 652.341248 L 305.192715 648.301383 L 300.265707 647.541626 L 291.430325 645.021277 L 288.396098 640.090158 L 288.901802 630.49822 L 288.020431 625.442911 L 285.491908 623.426631 L 279.430678 623.426631 L 274.633708 622.542683 L 271.353853 619.890837 L 267.943959 614.083075 L 269.713925 609.663332 L 274.633708 602.971622 L 280.066421 597.032364 L 286.250465 591.224602 L 292.058844 587.564617 L 297.491556 584.153013 L 301.529969 582.764995 L 302.541378 580.748716 L 301.407155 577.08873 L 301.154302 573.552935 L 302.541378 570.645402 L 307.338347 566.101468 L 310.372575 564.077883 L 312.012502 564.581953 L 313.905282 560.797776 L 316.180953 559.533949 L 317.568029 555.998154 L 316.932286 551.834099 L 314.158135 550.44608 L 311.001093 548.802374 L 309.108313 547.282859 L 310.871055 544.506822 L 310.625427 542.738925 L 307.591199 544.382631 L 304.564196 545.894841 L 301.529969 545.010892 L 298.120075 542.614734 L 295.72159 539.203131 L 295.851628 536.551285 L 299.131484 532.511421 L 302.917044 528.215869 L 305.315529 528.347365 L 308.096904 524.555883 L 311.506798 524.555883 L 311.629612 521.655655 L 313.65243 520.13614 L 316.679433 519.507879 L 316.180953 518.499739 L 311.75965 517.988364 L 307.468385 508.520617 L 300.771412 507.512477 L 292.441735 508.140738 L 287.261875 509.024687 L 281.959201 511.296654 L 277.415084 511.296654 L 274.763747 510.792584 L 274.763747 505.868771 L 276.656527 501.573219 L 281.453496 501.449028 L 284.86339 500.820767 L 287.139061 497.913234 L 294.710181 495.517075 L 297.744408 494.129057 L 301.154302 493.624987 L 301.407155 491.725593 L 308.349756 488.569678 L 313.399578 483.901552 L 314.786653 482.761916 L 321.100736 482.886107 L 326.40341 476.070206 L 330.196195 471.774654 L 335.246016 474.046621 L 340.671504 476.829963 L 343.322841 476.574276 L 345.974178 473.41836 L 346.22703 469.626878 L 347.62133 463.446543 L 348.379887 459.779252 L 351.284076 456.879024 L 357.720973 451.071262 L 361.38372 447.27978 L 365.674984 443.364107 L 368.709212 439.075861 L 369.843435 436.292518 L 371.736215 436.044136 L 372.364734 433.772169 L 370.471954 432.128463 L 370.219101 430.484757 L 372.494772 427.964407 L 374.640404 421.141201 L 378.556003 417.357024 L 382.977306 412.301715 L 384.9929 409.145799 L 388.908498 405.610004 L 392.946911 403.842107 L 396.103952 400.941879 L 397.873918 398.034346 L 401.03096 395.88657 L 403.306631 394.754239 L 406.333634 392.350775 L 408.984971 388.566599 L 411.383455 385.410683 L 413.153421 380.735252 L 416.816168 377.959215 L 421.360285 374.29923 L 426.03444 370.763435 L 429.567148 368.615659 L 431.71278 367.855902 L 432.095671 364.955674 L 434.241303 362.807898 L 435.375526 360.535931 L 436.89264 357.628397 L 438.409754 355.984691 L 439.666791 353.712724 L 440.555386 349.548668 L 443.459575 348.920407 L 442.823833 347.021014 L 442.448166 344.624856 L 445.222317 340.4608 L 448.256545 338.437215 L 450.402177 335.661178 L 453.42918 330.985748 L 454.693442 327.325762 L 457.474817 324.673916 L 461.007525 320.758243 L 462.900305 318.990346 L 462.647453 314.446412 L 462.647453 311.794566 L 464.417419 309.018529 L 465.934533 306.235186 L 467.198794 303.334958 L 467.57446 298.535337 L 469.850131 295.123733 L 470.731502 292.727575 L 473.635691 292.223505 L 473.758505 286.160056 L 475.658509 282.755758 L 478.685513 279.724033 L 480.708331 277.452066 L 485.375262 275.80836 L 490.555122 272.520948 L 496.110648 269.240841 L 498.256281 266.588995 L 498.256281 262.045061 L 498.003428 255.097663 L 501.54336 252.577314 L 502.301917 247.901883 L 504.317511 244.99435 L 504.823216 242.342504 L 504.064659 239.822155 L 502.930436 238.178449 L 503.688993 232.874757 L 505.451735 231.10686 L 505.957439 227.066995 L 507.098887 221.514922 L 506.846034 217.343561 L 508.738814 213.427888 L 509.750224 211.65999 Z M 511.643004 211.915678 " transform="matrix(0.540706,0,0,0.53471,-144.335933,-112.637672)"/>
</g>
</svg>