<?xml version="1.0" encoding="UTF-8"?>
<svg xmlns="http://www.w3.org/2000/svg" xmlns:xlink="http://www.w3.org/1999/xlink" width="381px" height="459px"  viewBox="0 0 381 459" version="1.1">

<g id="surface1">
<path id="sant'anna d'alfaedo" style="fill-rule:nonzero;fill:rgb(231, 110, 216);fill-opacity:1;stroke-width:0.1;stroke-linecap:butt;stroke-linejoin:round;stroke:rgb(0%,0%,0%);stroke-opacity:1;stroke-miterlimit:4;" d="M 115.965857 340.811031 L 117.696641 340.94019 L 119.13016 340.86974 L 121.506321 341.272872 L 122.231882 342.063482 L 122.413761 342.310058 L 122.394204 342.028257 L 122.458741 341.308098 L 123.44832 339.427464 L 124.543505 339.03803 L 124.690182 339.028245 L 124.856415 339.065427 L 126.023961 339.427464 L 126.127612 339.480302 L 126.497237 339.769931 L 126.50506 339.791458 L 126.550041 339.936272 L 126.70454 340.333534 L 126.911843 340.793418 L 127.396854 341.80125 L 127.49855 341.879528 L 128.335584 342.14176 L 129.043543 341.873657 L 129.20391 341.920624 L 129.362321 341.994989 L 129.518776 342.110449 L 129.964673 342.472486 L 130.250203 342.750373 L 130.70979 343.503801 L 131.016833 343.188731 L 131.046168 343.094797 L 131.028567 341.807121 L 130.537689 338.587931 L 130.261937 337.106516 L 129.906002 335.951913 L 129.886445 334.499852 L 130.164153 333.764037 L 129.958806 331.867748 L 129.254758 329.95189 L 128.583957 328.182803 L 128.441192 327.89513 L 128.366875 327.603544 L 128.143927 326.548745 L 128.140016 326.214106 L 128.177174 325.92252 L 128.214332 325.636805 L 128.357097 325.2415 L 128.499862 325.069288 L 128.583957 325.01645 L 128.902734 324.70138 L 129.127638 323.76987 L 129.248891 322.807048 L 129.094391 320.202342 L 129.080702 320.024259 L 128.378609 318.053605 L 127.909244 317.208201 L 127.682385 315.805064 L 127.703897 314.542829 L 127.885776 313.787444 L 128.022674 313.394096 L 128.075478 313.268851 L 128.493995 312.399963 L 128.806905 311.79135 L 128.930114 311.544774 L 128.953582 311.464539 L 128.959449 311.399959 L 128.935981 311.274714 L 128.924246 311.233618 L 128.488128 309.940071 L 128.429457 309.826568 L 127.218886 312.182741 L 127.168039 312.28646 L 127.105457 312.443016 L 127.070254 312.540864 L 126.463991 314.274726 L 124.408563 314.601537 L 123.405295 316.059469 L 123.411162 316.198412 L 123.391605 316.335399 L 123.29382 316.981194 L 123.274263 317.032075 L 123.092384 317.478261 L 122.802943 317.740493 L 122.785341 317.754191 L 122.603462 317.746363 L 122.286641 317.724837 L 121.737093 317.656344 L 121.115184 319.05948 L 120.284016 320.319759 L 120.172542 320.433262 L 119.898746 321.194518 L 119.750113 321.75812 L 119.558456 322.957734 L 119.603437 323.846191 L 118.332239 325.118212 L 117.755311 325.650503 L 117.19794 325.726825 L 117.088422 325.699427 L 116.57212 325.646589 L 116.378507 325.666159 L 116.218141 325.789447 L 116.169248 325.826629 L 115.963901 326.000798 L 115.74682 326.251288 L 115.611877 326.415673 L 115.572763 326.658335 L 115.594276 326.857944 L 116.016705 327.781627 L 116.104711 328.079084 L 116.333526 328.386326 L 116.579943 328.679869 L 117.45218 329.509618 L 117.606679 329.499833 L 119.323773 328.897091 L 119.546722 328.812942 L 119.957416 328.493958 L 120.055201 328.380455 L 120.117783 328.311962 L 120.289883 328.037988 L 120.358332 327.957753 L 120.391579 328.020375 L 120.684932 329.384373 L 120.679065 329.509618 L 120.321174 331.284576 L 119.728601 333.912766 L 119.675797 334.092806 L 118.999129 334.977349 L 118.854408 335.075197 L 117.2527 338.088907 L 116.881119 339.611418 L 116.832227 339.76406 L 116.628835 340.05956 L 116.253343 340.527273 Z M 115.965857 340.811031 " transform="matrix(1.997379,0,0,1.996086,-75.28399,-516.694414)"/>
<path id="villa bartolomea" style="fill-rule:nonzero;fill:rgb(255, 127, 39);fill-opacity:1;stroke-width:0.1;stroke-linecap:butt;stroke-linejoin:round;stroke:rgb(0%,0%,0%);stroke-opacity:1;stroke-miterlimit:4;" d="M 203.277554 487.520008 L 204.828415 487.359537 L 205.62438 483.694161 L 205.702608 483.318426 L 205.708475 483.285158 L 205.716298 483.236234 L 205.755411 483.00727 L 205.786702 482.705899 L 205.774968 482.437797 L 205.12568 480.140332 L 204.977048 479.484752 L 204.969225 479.17751 L 204.977048 478.880053 L 204.990737 478.592381 L 205.043541 478.281225 L 205.190218 478.052261 L 205.403388 477.688268 L 205.845373 476.752843 L 205.994005 476.392764 L 206.0781 476.07378 L 206.138726 475.745012 L 206.173929 475.4182 L 206.289314 474.079643 L 206.287359 473.905474 L 206.275624 473.83111 L 205.845373 473.776315 L 205.444457 471.132469 L 206.723477 470.255754 L 210.386481 467.968074 L 210.771752 467.754766 L 211.155066 467.555156 L 212.860426 466.711709 L 212.504491 465.204854 L 212.465377 465.083523 L 212.228739 464.537532 L 212.089885 464.247903 L 211.927563 464.034595 L 211.745684 463.897608 L 211.516869 463.821287 L 211.205914 463.795846 L 210.855846 463.823244 L 210.580094 463.776277 L 210.273051 463.692128 L 210.059881 463.574711 L 208.098326 462.073726 L 207.781504 461.829107 L 206.59049 460.782136 L 206.26389 460.480765 L 202.964644 458.240052 L 201.448986 457.394648 L 198.998509 457.36725 L 198.928104 457.472926 L 197.795761 460.543388 L 198.61715 462.155918 L 198.650396 462.273336 L 198.460695 463.251813 L 198.020665 464.200936 L 197.915058 464.408373 L 197.768381 464.576671 L 197.719489 464.600155 L 197.469161 464.719529 L 197.195364 464.821291 L 197.007618 464.889784 L 196.426779 464.934794 L 195.435245 464.733228 L 193.223362 464.300741 L 193.004325 464.332052 L 192.935876 464.382933 L 192.881116 464.498393 L 192.57994 465.144188 L 192.525181 465.269433 L 191.662723 467.55907 L 191.811355 470.29685 L 191.952164 470.643231 L 192.50758 471.835016 L 195.372663 478.330149 L 196.127559 480.144246 L 196.549987 481.185346 L 197.379199 482.189263 L 197.613882 482.318422 L 199.692778 483.416274 L 200.418338 483.748956 L 201.282753 483.84289 L 201.953554 483.903556 L 202.168679 483.950522 L 202.186281 483.954436 L 202.321223 484.122734 L 202.419007 484.383009 L 203.277554 487.521965 Z M 203.277554 487.520008 " transform="matrix(1.997379,0,0,1.996086,-75.28399,-516.694414)"/>
<path id="lago" style="fill-rule:nonzero;fill:#529eff;fill-opacity:1,stroke-width:2;stroke-linecap:butt;stroke-linejoin:round;stroke:rgb(0%,0%,0%);stroke-opacity:1;stroke-miterlimit:4;" d="M 511.643004 211.915678 L 515.428564 215.575663 L 519.09131 219.367146 L 524.27117 220.630973 L 526.539616 221.135043 L 527.428211 224.919219 L 532.095142 226.058856 L 532.095142 230.726981 L 531.589438 234.898342 L 529.068139 238.814015 L 525.282579 248.405953 L 521.114128 260.905425 L 521.114128 260.781234 L 520.355571 271.264426 L 518.838458 277.82464 L 517.957087 284.647846 L 514.164302 290.70399 L 505.834625 297.651388 L 505.581773 301.311374 L 504.317511 304.467289 L 500.654765 307.119135 L 495.099239 310.65493 L 493.083645 314.446412 L 489.796565 323.410089 L 486.769562 332.629454 L 485.12241 339.825234 L 483.482482 344.120786 L 481.71974 347.021014 L 478.179808 346.641135 L 476.164214 348.788911 L 475.152805 352.828775 L 477.421251 355.232239 L 476.792733 358.892224 L 474.011357 364.071725 L 470.854316 367.476023 L 466.693089 370.763435 L 463.911714 372.151454 L 463.283196 375.563057 L 463.7889 378.967355 L 461.766082 382.123271 L 456.586222 386.798701 L 454.946294 392.730654 L 450.655029 399.926434 L 447.620802 404.601865 L 445.222317 410.029748 L 442.448166 414.201108 L 439.038272 420.51294 L 436.134083 424.428613 L 431.459928 431.120323 L 427.797182 438.695982 L 425.023031 442.984228 L 422.241655 447.031398 L 421.360285 450.187314 L 419.843171 454.607057 L 417.950391 456.879024 L 412.900569 462.810977 L 410.249232 467.354911 L 407.850748 469.758374 L 406.586486 472.658603 L 405.705115 476.325893 L 403.559483 479.730191 L 401.406626 485.537953 L 398.502437 491.981281 L 394.846915 495.896954 L 394.969729 501.828907 L 393.582654 509.404566 L 391.054131 512.94036 L 387.897089 518.62393 L 386.257161 522.539604 L 385.245752 526.579468 L 385.122938 531.751663 L 385.498604 535.923024 L 386.510014 536.551285 L 388.402794 536.302903 L 391.184169 534.155127 L 394.088358 531.627472 L 397.498252 530.495141 L 402.042369 529.983766 L 405.575077 532.767108 L 409.237823 534.155127 L 411.766346 535.923024 L 411.130603 539.458818 L 410.754937 542.110664 L 413.78194 546.654598 L 416.433277 552.213978 L 417.444686 556.502224 L 418.456095 561.426037 L 419.337466 565.84578 L 419.337466 567.233799 L 422.624546 568.249244 L 424.011622 572.157612 L 423.758769 578.476748 L 423.383103 583.020683 L 425.145845 588.068687 L 426.287292 595.644345 L 427.674368 600.064089 L 428.685777 605.243589 L 429.444334 615.726781 L 424.64014 622.286995 L 421.483099 629.110202 L 418.708948 634.793772 L 416.563315 639.841776 L 416.310463 643.625953 L 413.406274 644.765589 L 413.153421 646.913365 L 411.88916 651.961369 L 406.962152 656.001233 L 403.429445 660.172594 L 402.042369 665.600477 L 403.935149 674.060084 L 403.935149 677.471688 L 399.766698 674.944033 L 393.076949 668.128132 L 385.498604 664.212458 L 382.724454 661.056543 L 369.460544 657.769131 L 364.287909 655.752851 L 361.889424 651.837178 L 360.242272 649.185332 L 357.215269 650.829038 L 353.552523 652.721127 L 347.368478 649.94509 L 341.682913 647.161747 L 341.177209 639.337706 L 339.667319 633.654136 L 339.912947 629.234393 L 341.430061 626.326859 L 341.560099 623.046752 L 339.912947 622.038613 L 339.912947 619.766646 L 341.935766 616.983303 L 340.042986 614.711336 L 337.767315 610.42309 L 336.38024 610.42309 L 332.970346 613.447509 L 333.981755 615.975164 L 335.498869 618.378627 L 337.897353 620.394907 L 339.161615 622.79837 L 338.525872 624.434771 L 338.150206 628.474635 L 337.644501 636.430173 L 335.246016 639.337706 L 330.701899 641.989552 L 328.173376 645.525346 L 324.257778 650.573351 L 317.185138 652.341248 L 305.192715 648.301383 L 300.265707 647.541626 L 291.430325 645.021277 L 288.396098 640.090158 L 288.901802 630.49822 L 288.020431 625.442911 L 285.491908 623.426631 L 279.430678 623.426631 L 274.633708 622.542683 L 271.353853 619.890837 L 267.943959 614.083075 L 269.713925 609.663332 L 274.633708 602.971622 L 280.066421 597.032364 L 286.250465 591.224602 L 292.058844 587.564617 L 297.491556 584.153013 L 301.529969 582.764995 L 302.541378 580.748716 L 301.407155 577.08873 L 301.154302 573.552935 L 302.541378 570.645402 L 307.338347 566.101468 L 310.372575 564.077883 L 312.012502 564.581953 L 313.905282 560.797776 L 316.180953 559.533949 L 317.568029 555.998154 L 316.932286 551.834099 L 314.158135 550.44608 L 311.001093 548.802374 L 309.108313 547.282859 L 310.871055 544.506822 L 310.625427 542.738925 L 307.591199 544.382631 L 304.564196 545.894841 L 301.529969 545.010892 L 298.120075 542.614734 L 295.72159 539.203131 L 295.851628 536.551285 L 299.131484 532.511421 L 302.917044 528.215869 L 305.315529 528.347365 L 308.096904 524.555883 L 311.506798 524.555883 L 311.629612 521.655655 L 313.65243 520.13614 L 316.679433 519.507879 L 316.180953 518.499739 L 311.75965 517.988364 L 307.468385 508.520617 L 300.771412 507.512477 L 292.441735 508.140738 L 287.261875 509.024687 L 281.959201 511.296654 L 277.415084 511.296654 L 274.763747 510.792584 L 274.763747 505.868771 L 276.656527 501.573219 L 281.453496 501.449028 L 284.86339 500.820767 L 287.139061 497.913234 L 294.710181 495.517075 L 297.744408 494.129057 L 301.154302 493.624987 L 301.407155 491.725593 L 308.349756 488.569678 L 313.399578 483.901552 L 314.786653 482.761916 L 321.100736 482.886107 L 326.40341 476.070206 L 330.196195 471.774654 L 335.246016 474.046621 L 340.671504 476.829963 L 343.322841 476.574276 L 345.974178 473.41836 L 346.22703 469.626878 L 347.62133 463.446543 L 348.379887 459.779252 L 351.284076 456.879024 L 357.720973 451.071262 L 361.38372 447.27978 L 365.674984 443.364107 L 368.709212 439.075861 L 369.843435 436.292518 L 371.736215 436.044136 L 372.364734 433.772169 L 370.471954 432.128463 L 370.219101 430.484757 L 372.494772 427.964407 L 374.640404 421.141201 L 378.556003 417.357024 L 382.977306 412.301715 L 384.9929 409.145799 L 388.908498 405.610004 L 392.946911 403.842107 L 396.103952 400.941879 L 397.873918 398.034346 L 401.03096 395.88657 L 403.306631 394.754239 L 406.333634 392.350775 L 408.984971 388.566599 L 411.383455 385.410683 L 413.153421 380.735252 L 416.816168 377.959215 L 421.360285 374.29923 L 426.03444 370.763435 L 429.567148 368.615659 L 431.71278 367.855902 L 432.095671 364.955674 L 434.241303 362.807898 L 435.375526 360.535931 L 436.89264 357.628397 L 438.409754 355.984691 L 439.666791 353.712724 L 440.555386 349.548668 L 443.459575 348.920407 L 442.823833 347.021014 L 442.448166 344.624856 L 445.222317 340.4608 L 448.256545 338.437215 L 450.402177 335.661178 L 453.42918 330.985748 L 454.693442 327.325762 L 457.474817 324.673916 L 461.007525 320.758243 L 462.900305 318.990346 L 462.647453 314.446412 L 462.647453 311.794566 L 464.417419 309.018529 L 465.934533 306.235186 L 467.198794 303.334958 L 467.57446 298.535337 L 469.850131 295.123733 L 470.731502 292.727575 L 473.635691 292.223505 L 473.758505 286.160056 L 475.658509 282.755758 L 478.685513 279.724033 L 480.708331 277.452066 L 485.375262 275.80836 L 490.555122 272.520948 L 496.110648 269.240841 L 498.256281 266.588995 L 498.256281 262.045061 L 498.003428 255.097663 L 501.54336 252.577314 L 502.301917 247.901883 L 504.317511 244.99435 L 504.823216 242.342504 L 504.064659 239.822155 L 502.930436 238.178449 L 503.688993 232.874757 L 505.451735 231.10686 L 505.957439 227.066995 L 507.098887 221.514922 L 506.846034 217.343561 L 508.738814 213.427888 L 509.750224 211.65999 Z M 511.643004 211.915678 " transform="matrix(0.540706,0,0,0.53471,-144.335933,-112.637672)"/>
</g>
</svg>