<?xml version="1.0" encoding="UTF-8"?>
<svg xmlns="http://www.w3.org/2000/svg" xmlns:xlink="http://www.w3.org/1999/xlink" width="381px" height="459px" fill = "none" viewBox="0 0 381 459" version="1.1">

<g id="surface1">
<path id="vigasio" style="fill-rule:nonzero;fill:rgb(97.254902%,76.470588%,0%);fill-opacity:1;stroke-width:0.1;stroke-linecap:butt;stroke-linejoin:round;stroke:rgb(0%,0%,0%);stroke-opacity:1;stroke-miterlimit:4;" d="M 129.851243 412.51385 L 128.415768 406.562751 L 125.67976 406.609717 L 125.689538 406.701694 L 125.713007 406.797585 L 125.85186 407.116569 L 126.102188 407.774105 L 126.162815 407.928705 L 126.20584 408.07939 L 126.497237 409.108749 L 125.527216 409.484484 L 125.316002 409.498183 L 124.543505 409.37098 L 124.383139 409.329884 L 123.608686 408.412073 L 123.508946 408.243775 L 122.372691 407.754536 L 120.587148 407.388585 L 118.457403 405.527522 L 118.516074 402.940427 L 118.383087 402.954126 L 117.817893 404.046107 L 116.409798 406.637115 L 115.594276 407.87391 L 114.620343 410.014819 L 114.831558 410.183117 L 116.147736 415.75848 L 116.028439 416.204666 L 115.345904 416.513865 L 116.087109 417.948313 L 116.306147 418.13618 L 116.382418 418.149879 L 116.493893 418.235985 L 116.640569 418.369058 L 116.742265 418.480604 L 118.475005 420.598029 L 119.45676 422.576511 L 119.765759 422.815259 L 119.888967 422.830915 L 121.003709 422.944418 L 124.379227 422.275139 L 126.209751 422.132282 L 126.630224 422.016821 L 127.261912 421.118579 L 128.701298 417.441461 L 128.714988 417.345571 L 128.812772 416.492338 L 128.79126 416.333825 L 128.339496 413.725205 Z M 129.851243 412.51385 " transform="matrix(1.997379,0,0,1.996086,-75.28399,-516.694414)"/>
<path id="buttapietra" style="fill-rule:evenodd;fill:rgb(97.254902%,76.470588%,0%);fill-opacity:1;stroke-width:0.1;stroke-linecap:butt;stroke-linejoin:round;stroke:rgb(0%,0%,0%);stroke-opacity:1;stroke-miterlimit:4;" d="M 129.851243 412.51385 L 130.044856 413.163559 L 130.050723 413.183128 L 130.449683 414.504073 L 133.539671 416.470812 L 133.854536 416.349481 L 134.478401 415.449282 L 134.255452 413.07941 L 134.253497 413.057883 L 134.591831 410.960028 L 135.145291 411.324021 L 135.333037 411.449266 L 136.013616 411.958075 L 136.334349 412.239876 L 136.496671 412.380777 L 136.66486 412.545161 L 137.499939 413.376867 L 137.607502 413.49037 L 137.652483 413.576476 L 137.767868 413.811311 L 137.981038 414.087241 L 138.577523 414.609748 L 140.28875 415.353391 L 140.503876 415.325993 L 140.537123 412.599956 L 140.865678 411.635177 L 139.928904 410.169418 L 138.299816 409.870004 L 137.292636 408.639079 L 137.271124 408.609725 L 137.130314 408.415987 L 136.960169 407.615592 L 136.921055 407.325963 L 137.014928 407.028506 L 137.71702 404.928693 L 138.102291 404.505991 L 138.458226 404.273114 L 138.438669 404.140041 L 138.407378 403.92869 L 138.203987 402.644927 L 137.973216 401.740814 L 137.965393 401.71146 L 137.918456 401.529463 L 137.226143 401.053923 L 136.795891 401.169384 L 133.484911 402.089152 L 132.882559 402.323987 L 132.223492 402.985437 L 132.522713 404.302468 L 132.608763 404.77018 L 132.792598 405.183098 L 133.017502 405.864118 L 133.021413 405.88173 L 133.095729 406.31226 L 133.097685 406.322045 L 132.91385 406.613631 L 132.622453 406.711479 L 131.499888 406.991324 L 131.398192 406.92283 L 131.327787 406.860208 L 131.274984 406.801499 L 131.288673 406.562751 L 131.415793 406.292691 L 131.533134 405.120475 L 131.525312 405.006972 L 131.525312 404.958048 L 130.889713 404.353349 L 130.140685 404.388574 L 129.016164 405.462942 L 128.32385 405.54122 L 128.415768 406.560794 Z M 129.851243 412.51385 " transform="matrix(1.997379,0,0,1.996086,-75.28399,-516.694414)"/>
<path id="oppeano" style="fill-rule:nonzero;fill:rgb(97.254902%,76.470588%,0%);fill-opacity:1;stroke-width:0.1;stroke-linecap:butt;stroke-linejoin:round;stroke:rgb(0%,0%,0%);stroke-opacity:1;stroke-miterlimit:4;" d="M 149.990919 423.950293 L 150.098482 423.93268 L 150.251026 423.90724 L 150.430949 423.860273 L 150.194311 423.171425 L 150.153241 423.083362 L 150.075014 422.922891 L 149.985052 422.762421 L 149.760148 422.457136 L 149.189087 421.691967 L 149.046322 421.508013 L 148.391166 420.335797 L 147.849441 418.748707 L 147.421145 417.189014 L 147.170817 415.987444 L 147.60498 415.742825 L 148.150617 416.580401 L 148.539799 417.118564 L 148.835108 417.511912 L 149.179309 417.866121 L 149.345542 418.024634 L 149.574358 418.212502 L 149.830553 418.349488 L 150.147374 418.484518 L 152.685858 419.508006 L 155.124601 420.682178 L 157.702198 422.020735 L 158.040532 422.243828 L 158.103114 422.294709 L 158.973395 423.684147 L 159.622683 425.159691 L 160.029467 426.106857 L 160.097916 426.249714 L 160.526211 426.842672 L 160.643553 426.981615 L 160.747204 427.054023 L 162.386071 428.024672 L 162.522969 428.069682 L 162.697025 428.091209 L 162.804588 428.071639 L 164.308512 428.055984 L 165.227686 427.868116 L 165.681405 426.558913 L 166.864597 424.33777 L 167.251823 423.738942 L 170.208823 421.046172 L 171.573894 420.245778 L 172.737528 420.185112 L 173.53936 419.282956 L 173.664524 418.942446 L 174.083042 417.780015 L 174.071308 416.484511 L 172.698414 416.210537 L 170.953941 416.547133 L 170.697746 416.45907 L 170.537379 416.404276 L 170.388747 416.365136 L 168.953272 416.192924 L 168.391989 416.194881 L 167.742701 416.320126 L 167.275291 416.451242 L 167.087545 416.486468 L 165.959113 416.562789 L 164.40043 416.5941 L 161.1755 416.357309 L 160.156586 416.243805 L 159.902347 416.200752 L 156.890587 415.599967 L 156.710664 415.541259 L 156.44469 415.447325 L 156.290191 415.39253 L 156.151337 415.343606 L 155.648725 415.145954 L 155.138291 414.889593 L 154.668925 414.625404 L 154.258231 414.384698 L 151.612185 412.159641 L 152.011145 410.74672 L 151.729526 410.901319 L 150.268627 410.961985 L 150.178665 410.840653 L 150.108261 410.709537 L 149.969407 410.445349 L 149.556757 409.631255 L 149.457016 409.384679 L 149.367055 409.116576 L 149.316207 408.879785 L 149.329897 408.733013 L 149.312296 408.570586 L 148.663007 407.028506 L 148.619982 406.973711 L 148.57109 406.918916 L 148.408768 406.73692 L 148.236667 406.552966 L 148.035231 406.378797 L 147.900289 406.417936 L 145.062585 407.100913 L 144.28031 407.245728 L 144.30769 407.290738 L 144.39374 407.429681 L 144.434809 407.492304 L 144.450455 407.527529 L 144.57953 407.785847 L 144.91982 408.498179 L 144.77901 408.613639 L 144.526727 408.676262 L 144.299867 408.670391 L 144.117988 408.668434 L 143.98109 408.699745 L 143.697515 408.836732 L 142.989556 409.349454 L 143.253574 410.388597 L 143.61342 412.451227 L 143.574306 412.644966 L 143.390472 413.46493 L 142.715759 413.449274 L 142.152521 413.35534 L 141.978465 412.611697 L 140.971286 412.511893 L 140.537123 412.599956 L 140.503876 415.325993 L 140.492142 415.736954 L 140.494098 415.985487 L 140.531256 416.27903 L 140.548857 416.410146 L 140.60166 416.66455 L 140.652508 416.86416 L 141.659688 419.008982 L 143.904818 421.245781 L 144.184481 421.408209 L 144.45241 421.55498 L 144.755542 421.70958 L 145.635602 421.969855 L 146.194929 422.108798 L 147.184507 422.261441 L 147.5776 422.25557 L 147.853352 422.263398 L 148.314895 422.284924 L 149.236024 422.400385 L 149.392479 422.427782 L 149.425725 422.484534 L 149.449194 422.523673 L 149.887268 423.384733 L 149.957673 423.580428 L 150.002653 423.729157 L 149.990919 423.948336 Z M 149.990919 423.950293 " transform="matrix(1.997379,0,0,1.996086,-75.28399,-516.694414)"/>
<path id="ronco all'adige" style="fill-rule:nonzero;fill:rgb(97.254902%,76.470588%,0%);fill-opacity:1;stroke-width:0.1;stroke-linecap:butt;stroke-linejoin:round;stroke:rgb(0%,0%,0%);stroke-opacity:1;stroke-miterlimit:4;" d="M 185.394742 413.848493 L 185.126813 413.14986 L 183.266953 411.167465 L 181.197835 406.235939 L 177.765602 404.347478 L 176.070021 403.419881 L 174.272743 402.774086 L 171.792931 401.858232 L 171.464375 401.727116 L 171.309876 401.660579 L 171.200357 401.611655 L 171.114307 401.511851 L 170.55498 403.132209 L 170.465019 403.396398 L 169.721857 404.68016 L 169.645585 404.772137 L 169.266182 405.069594 L 169.094081 405.075465 L 168.804639 405.048068 L 168.278559 404.87977 L 167.713365 404.746697 L 167.664473 404.895425 L 167.28507 406.584277 L 167.312449 406.991324 L 167.429791 407.909135 L 167.509974 408.423814 L 167.617537 408.502093 L 168.395901 409.018729 L 168.50933 409.398378 L 168.568001 409.592116 L 168.628627 409.79564 L 169.111682 411.212475 L 170.326165 414.658672 L 170.893314 416.314256 L 170.953941 416.547133 L 172.698414 416.210537 L 174.071308 416.484511 L 174.083042 417.780015 L 173.664524 418.942446 L 173.53936 419.280999 L 172.737528 420.185112 L 173.396595 421.081397 L 174.798824 421.508013 L 175.667149 421.400381 L 176.073932 421.345586 L 176.435735 421.294705 L 176.680196 421.302533 L 177.27668 421.369069 L 177.356864 421.807427 L 177.102624 423.024653 L 176.601968 423.938551 L 175.688662 424.284932 L 175.543941 424.374952 L 175.434422 424.529551 L 175.436378 424.752644 L 175.547852 425.482588 L 176.075888 425.611747 L 178.931193 425.216442 L 184.121589 424.365167 L 184.698517 423.582385 L 184.620289 423.539332 L 184.358227 423.384733 L 184.168526 423.23209 L 183.963178 422.979643 L 183.838014 422.707626 L 183.802812 422.394514 L 183.82628 422.179249 L 183.935799 421.965941 L 184.160703 421.691967 L 184.409075 421.515841 L 184.941022 421.206642 L 185.279356 421.122493 L 185.604001 421.126407 L 185.869974 418.81133 L 185.55902 414.750649 Z M 185.394742 413.848493 " transform="matrix(1.997379,0,0,1.996086,-75.28399,-516.694414)"/>
<path id="albaredo d'adige" style="fill-rule:evenodd;fill:rgb(97.254902%,76.470588%,0%);fill-opacity:1;stroke-width:0.1;stroke-linecap:butt;stroke-linejoin:round;stroke:rgb(0%,0%,0%);stroke-opacity:1;stroke-miterlimit:4;" d="M 187.115748 430.192978 L 187.285892 430.189064 L 187.348474 430.187107 L 187.522531 430.138183 L 187.534265 430.132312 L 188.296983 429.868124 L 189.302207 428.993365 L 190.514734 427.793752 L 191.402616 427.288857 L 193.021926 427.699818 L 194.594299 427.474768 L 194.678394 426.106857 L 195.022595 425.504115 L 196.393532 426.140125 L 198.145829 423.582385 L 197.903323 422.893537 L 197.113225 422.537371 L 197.007618 422.472792 L 196.872676 422.337762 L 196.774891 422.236 L 196.188185 421.547152 L 195.896787 419.482565 L 195.126246 417.416021 L 194.455445 415.701729 L 194.34006 415.515818 L 193.888296 414.991354 L 193.774866 414.864152 L 192.974989 414.116596 L 190.068837 412.116588 L 189.843933 411.965902 L 189.630763 411.825002 L 189.413681 411.754551 L 189.130106 411.670402 L 188.864133 411.594081 L 188.719412 411.584296 L 188.404546 411.584296 L 185.869974 412.151813 L 185.394742 413.848493 L 185.55902 414.748692 L 185.869974 418.81133 L 185.604001 421.126407 L 185.281312 421.122493 L 184.941022 421.206642 L 184.409075 421.513884 L 184.160703 421.691967 L 183.935799 421.965941 L 183.82628 422.177292 L 183.802812 422.392557 L 183.838014 422.707626 L 183.963178 422.977686 L 184.168526 423.23209 L 184.358227 423.384733 L 184.620289 423.537375 L 184.698517 423.582385 L 184.939067 423.711544 L 185.160059 423.856359 L 185.316514 424.059882 L 185.435811 424.27319 L 185.44559 424.312329 L 185.502305 424.525637 L 185.484704 424.756558 L 185.433856 424.934641 L 185.334116 425.13425 L 185.296958 425.183174 L 185.138547 425.388654 L 184.845194 425.660671 L 184.174393 426.185135 L 183.843881 426.412142 L 183.730451 426.500205 L 183.570085 426.623493 L 183.276732 426.858327 L 182.975556 427.15187 L 182.824968 427.357351 L 182.76043 427.609798 L 182.764341 427.858331 L 182.764341 427.901384 L 182.871904 428.255593 L 182.957955 428.459116 L 183.110498 428.61763 L 183.394073 428.799626 L 183.607243 428.922914 L 183.894729 429.007064 L 184.254576 429.034461 L 184.524461 429.050117 L 184.897997 429.0736 L 185.257844 429.11861 L 185.594222 429.192974 L 185.862151 429.257554 L 186.327605 429.447378 L 186.603357 429.605892 L 186.679629 429.6646 L 186.836084 429.787888 L 187.019919 429.987498 L 187.072722 430.065776 Z M 187.115748 430.192978 " transform="matrix(1.997379,0,0,1.996086,-75.28399,-516.694414)"/>
<path id="bonavigo" style="fill-rule:evenodd;fill:rgb(97.254902%,76.470588%,0%);fill-opacity:1;stroke-width:0.1;stroke-linecap:butt;stroke-linejoin:round;stroke:rgb(0%,0%,0%);stroke-opacity:1;stroke-miterlimit:4;" d="M 196.5715 428.590232 L 194.594299 427.476725 L 193.021926 427.699818 L 191.402616 427.288857 L 190.514734 427.793752 L 189.302207 428.993365 L 188.296983 429.868124 L 187.534265 430.134269 L 187.522531 430.138183 L 187.348474 430.189064 L 187.285892 430.191021 L 187.115748 430.194935 L 187.143127 430.59024 L 187.090324 430.746796 L 186.873242 431.208637 L 186.712876 431.433687 L 186.546642 431.646995 L 186.241555 431.962065 L 186.07141 432.147976 L 185.911044 432.349542 L 185.907132 432.353456 L 185.57271 432.817254 L 185.451457 433.046218 L 185.238287 433.486533 L 185.144414 433.688099 L 185.107256 433.858354 L 185.093566 433.981642 L 185.083788 434.093189 L 185.09161 434.414129 L 185.113123 434.53546 L 185.144414 434.717457 L 185.199173 434.897497 L 185.279356 435.106891 L 185.371274 435.296716 L 185.4319 435.41609 L 185.498393 435.529593 L 185.64507 435.697891 L 186.595535 436.329988 L 186.759812 436.496329 L 187.950826 437.860326 L 187.98994 437.960131 L 188.052522 438.4298 L 188.021231 438.582443 L 187.935181 438.735085 L 187.813928 438.95035 L 187.725922 439.151916 L 187.659429 439.343698 L 187.624226 439.543307 L 187.600758 439.784013 L 187.60467 439.985579 L 187.630094 440.265424 L 187.680941 440.535483 L 187.806105 440.844682 L 188.046655 441.32805 L 188.171819 441.531573 L 188.349787 441.762494 L 188.533621 441.91905 L 188.748747 442.048209 L 188.809374 442.083435 L 189.051879 442.165627 L 189.358922 442.261517 L 189.937806 442.494395 L 190.156843 442.592243 L 190.325032 442.711617 L 190.510822 442.926882 L 190.581227 443.026687 L 190.639898 443.108879 L 190.755283 443.30066 L 190.837422 443.486571 L 190.882403 443.625515 L 190.923472 443.827081 L 190.958675 444.059959 L 191.036902 444.672486 L 191.433907 444.672486 L 191.623609 444.666615 L 191.819178 444.625519 L 191.950209 444.590293 L 192.010835 444.576595 L 193.278121 444.044303 L 193.395462 443.893618 L 193.780733 443.259564 L 193.7866 443.247823 L 193.845271 443.149975 L 193.680993 443.028644 L 193.643835 443.001246 L 193.415019 442.848604 L 193.280077 442.756627 L 193.47369 442.402418 L 194.987392 440.739007 L 195.513473 440.28695 L 195.773579 440.083427 L 195.188828 439.566791 L 192.869382 436.893591 L 192.824401 436.263451 L 193.004325 433.506102 L 193.894163 431.463042 L 193.982169 431.261475 L 194.056485 431.102962 L 194.619723 429.965971 L 194.977614 429.813329 L 195.769668 429.627418 L 196.424823 428.924871 L 196.489361 428.7781 Z M 196.5715 428.590232 " transform="matrix(1.997379,0,0,1.996086,-75.28399,-516.694414)"/>
<path id="nogarole rocca" style="fill-rule:nonzero;fill:rgb(97.254902%,76.470588%,0%);fill-opacity:1;stroke-width:0.1;stroke-linecap:butt;stroke-linejoin:round;stroke:rgb(0%,0%,0%);stroke-opacity:1;stroke-miterlimit:4;" d="M 119.45676 422.576511 L 118.475005 420.598029 L 116.742265 418.480604 L 116.640569 418.369058 L 116.491937 418.235985 L 116.382418 418.149879 L 116.306147 418.13618 L 112.891515 417.987452 L 112.76244 418.167492 L 109.799572 420.155758 L 107.276734 420.695877 L 106.515972 420.281003 L 105.845171 420.095092 L 104.798877 420.318185 L 104.755852 420.384721 L 104.536815 420.719361 L 103.795609 421.879835 L 103.5003 423.063792 L 103.459231 423.498236 L 103.488566 424.680237 L 103.502256 424.81331 L 103.549193 424.911157 L 103.625464 425.065757 L 103.738894 425.236012 L 103.40056 427.525649 L 102.968353 428.083381 L 102.921417 429.296693 L 102.921417 429.508044 L 102.927284 429.688084 L 102.942929 429.770276 L 102.962486 429.868124 L 103.856236 431.770283 L 104.239551 432.58242 L 107.108545 433.044261 L 109.854331 433.69397 L 110.583803 434.954249 L 111.037523 435.25562 L 111.843266 435.007086 L 112.412371 434.787908 L 113.165311 433.51393 L 114.465844 431.06578 L 114.673147 430.656776 L 115.19336 429.59415 L 116.151647 427.449328 L 116.241609 427.099033 L 116.222052 426.836801 L 116.104711 426.74091 L 116.274855 425.889635 L 117.573432 423.247746 L 117.706419 423.179253 L 117.712286 423.175339 L 117.757267 423.151855 L 117.986083 423.042266 L 118.15036 422.983557 L 118.240322 423.003127 L 118.271613 423.073577 L 118.255968 423.202736 L 118.224677 423.402345 L 118.275524 423.588256 L 118.406556 423.764382 L 118.932636 424.33777 L 119.081268 424.435617 L 119.179052 424.376909 L 119.599525 423.899412 L 119.744246 423.703716 L 119.744246 423.539332 L 119.726645 423.320153 Z M 119.45676 422.576511 " transform="matrix(1.997379,0,0,1.996086,-75.28399,-516.694414)"/>
<path id="lago" style="fill-rule:nonzero;fill:#529eff;fill-opacity:1,stroke-width:2;stroke-linecap:butt;stroke-linejoin:round;stroke:rgb(0%,0%,0%);stroke-opacity:1;stroke-miterlimit:4;" d="M 511.643004 211.915678 L 515.428564 215.575663 L 519.09131 219.367146 L 524.27117 220.630973 L 526.539616 221.135043 L 527.428211 224.919219 L 532.095142 226.058856 L 532.095142 230.726981 L 531.589438 234.898342 L 529.068139 238.814015 L 525.282579 248.405953 L 521.114128 260.905425 L 521.114128 260.781234 L 520.355571 271.264426 L 518.838458 277.82464 L 517.957087 284.647846 L 514.164302 290.70399 L 505.834625 297.651388 L 505.581773 301.311374 L 504.317511 304.467289 L 500.654765 307.119135 L 495.099239 310.65493 L 493.083645 314.446412 L 489.796565 323.410089 L 486.769562 332.629454 L 485.12241 339.825234 L 483.482482 344.120786 L 481.71974 347.021014 L 478.179808 346.641135 L 476.164214 348.788911 L 475.152805 352.828775 L 477.421251 355.232239 L 476.792733 358.892224 L 474.011357 364.071725 L 470.854316 367.476023 L 466.693089 370.763435 L 463.911714 372.151454 L 463.283196 375.563057 L 463.7889 378.967355 L 461.766082 382.123271 L 456.586222 386.798701 L 454.946294 392.730654 L 450.655029 399.926434 L 447.620802 404.601865 L 445.222317 410.029748 L 442.448166 414.201108 L 439.038272 420.51294 L 436.134083 424.428613 L 431.459928 431.120323 L 427.797182 438.695982 L 425.023031 442.984228 L 422.241655 447.031398 L 421.360285 450.187314 L 419.843171 454.607057 L 417.950391 456.879024 L 412.900569 462.810977 L 410.249232 467.354911 L 407.850748 469.758374 L 406.586486 472.658603 L 405.705115 476.325893 L 403.559483 479.730191 L 401.406626 485.537953 L 398.502437 491.981281 L 394.846915 495.896954 L 394.969729 501.828907 L 393.582654 509.404566 L 391.054131 512.94036 L 387.897089 518.62393 L 386.257161 522.539604 L 385.245752 526.579468 L 385.122938 531.751663 L 385.498604 535.923024 L 386.510014 536.551285 L 388.402794 536.302903 L 391.184169 534.155127 L 394.088358 531.627472 L 397.498252 530.495141 L 402.042369 529.983766 L 405.575077 532.767108 L 409.237823 534.155127 L 411.766346 535.923024 L 411.130603 539.458818 L 410.754937 542.110664 L 413.78194 546.654598 L 416.433277 552.213978 L 417.444686 556.502224 L 418.456095 561.426037 L 419.337466 565.84578 L 419.337466 567.233799 L 422.624546 568.249244 L 424.011622 572.157612 L 423.758769 578.476748 L 423.383103 583.020683 L 425.145845 588.068687 L 426.287292 595.644345 L 427.674368 600.064089 L 428.685777 605.243589 L 429.444334 615.726781 L 424.64014 622.286995 L 421.483099 629.110202 L 418.708948 634.793772 L 416.563315 639.841776 L 416.310463 643.625953 L 413.406274 644.765589 L 413.153421 646.913365 L 411.88916 651.961369 L 406.962152 656.001233 L 403.429445 660.172594 L 402.042369 665.600477 L 403.935149 674.060084 L 403.935149 677.471688 L 399.766698 674.944033 L 393.076949 668.128132 L 385.498604 664.212458 L 382.724454 661.056543 L 369.460544 657.769131 L 364.287909 655.752851 L 361.889424 651.837178 L 360.242272 649.185332 L 357.215269 650.829038 L 353.552523 652.721127 L 347.368478 649.94509 L 341.682913 647.161747 L 341.177209 639.337706 L 339.667319 633.654136 L 339.912947 629.234393 L 341.430061 626.326859 L 341.560099 623.046752 L 339.912947 622.038613 L 339.912947 619.766646 L 341.935766 616.983303 L 340.042986 614.711336 L 337.767315 610.42309 L 336.38024 610.42309 L 332.970346 613.447509 L 333.981755 615.975164 L 335.498869 618.378627 L 337.897353 620.394907 L 339.161615 622.79837 L 338.525872 624.434771 L 338.150206 628.474635 L 337.644501 636.430173 L 335.246016 639.337706 L 330.701899 641.989552 L 328.173376 645.525346 L 324.257778 650.573351 L 317.185138 652.341248 L 305.192715 648.301383 L 300.265707 647.541626 L 291.430325 645.021277 L 288.396098 640.090158 L 288.901802 630.49822 L 288.020431 625.442911 L 285.491908 623.426631 L 279.430678 623.426631 L 274.633708 622.542683 L 271.353853 619.890837 L 267.943959 614.083075 L 269.713925 609.663332 L 274.633708 602.971622 L 280.066421 597.032364 L 286.250465 591.224602 L 292.058844 587.564617 L 297.491556 584.153013 L 301.529969 582.764995 L 302.541378 580.748716 L 301.407155 577.08873 L 301.154302 573.552935 L 302.541378 570.645402 L 307.338347 566.101468 L 310.372575 564.077883 L 312.012502 564.581953 L 313.905282 560.797776 L 316.180953 559.533949 L 317.568029 555.998154 L 316.932286 551.834099 L 314.158135 550.44608 L 311.001093 548.802374 L 309.108313 547.282859 L 310.871055 544.506822 L 310.625427 542.738925 L 307.591199 544.382631 L 304.564196 545.894841 L 301.529969 545.010892 L 298.120075 542.614734 L 295.72159 539.203131 L 295.851628 536.551285 L 299.131484 532.511421 L 302.917044 528.215869 L 305.315529 528.347365 L 308.096904 524.555883 L 311.506798 524.555883 L 311.629612 521.655655 L 313.65243 520.13614 L 316.679433 519.507879 L 316.180953 518.499739 L 311.75965 517.988364 L 307.468385 508.520617 L 300.771412 507.512477 L 292.441735 508.140738 L 287.261875 509.024687 L 281.959201 511.296654 L 277.415084 511.296654 L 274.763747 510.792584 L 274.763747 505.868771 L 276.656527 501.573219 L 281.453496 501.449028 L 284.86339 500.820767 L 287.139061 497.913234 L 294.710181 495.517075 L 297.744408 494.129057 L 301.154302 493.624987 L 301.407155 491.725593 L 308.349756 488.569678 L 313.399578 483.901552 L 314.786653 482.761916 L 321.100736 482.886107 L 326.40341 476.070206 L 330.196195 471.774654 L 335.246016 474.046621 L 340.671504 476.829963 L 343.322841 476.574276 L 345.974178 473.41836 L 346.22703 469.626878 L 347.62133 463.446543 L 348.379887 459.779252 L 351.284076 456.879024 L 357.720973 451.071262 L 361.38372 447.27978 L 365.674984 443.364107 L 368.709212 439.075861 L 369.843435 436.292518 L 371.736215 436.044136 L 372.364734 433.772169 L 370.471954 432.128463 L 370.219101 430.484757 L 372.494772 427.964407 L 374.640404 421.141201 L 378.556003 417.357024 L 382.977306 412.301715 L 384.9929 409.145799 L 388.908498 405.610004 L 392.946911 403.842107 L 396.103952 400.941879 L 397.873918 398.034346 L 401.03096 395.88657 L 403.306631 394.754239 L 406.333634 392.350775 L 408.984971 388.566599 L 411.383455 385.410683 L 413.153421 380.735252 L 416.816168 377.959215 L 421.360285 374.29923 L 426.03444 370.763435 L 429.567148 368.615659 L 431.71278 367.855902 L 432.095671 364.955674 L 434.241303 362.807898 L 435.375526 360.535931 L 436.89264 357.628397 L 438.409754 355.984691 L 439.666791 353.712724 L 440.555386 349.548668 L 443.459575 348.920407 L 442.823833 347.021014 L 442.448166 344.624856 L 445.222317 340.4608 L 448.256545 338.437215 L 450.402177 335.661178 L 453.42918 330.985748 L 454.693442 327.325762 L 457.474817 324.673916 L 461.007525 320.758243 L 462.900305 318.990346 L 462.647453 314.446412 L 462.647453 311.794566 L 464.417419 309.018529 L 465.934533 306.235186 L 467.198794 303.334958 L 467.57446 298.535337 L 469.850131 295.123733 L 470.731502 292.727575 L 473.635691 292.223505 L 473.758505 286.160056 L 475.658509 282.755758 L 478.685513 279.724033 L 480.708331 277.452066 L 485.375262 275.80836 L 490.555122 272.520948 L 496.110648 269.240841 L 498.256281 266.588995 L 498.256281 262.045061 L 498.003428 255.097663 L 501.54336 252.577314 L 502.301917 247.901883 L 504.317511 244.99435 L 504.823216 242.342504 L 504.064659 239.822155 L 502.930436 238.178449 L 503.688993 232.874757 L 505.451735 231.10686 L 505.957439 227.066995 L 507.098887 221.514922 L 506.846034 217.343561 L 508.738814 213.427888 L 509.750224 211.65999 Z M 511.643004 211.915678 " transform="matrix(0.540706,0,0,0.53471,-144.335933,-112.637672)"/>
</g>
</svg>