<?xml version="1.0" encoding="UTF-8"?>
<svg xmlns="http://www.w3.org/2000/svg" xmlns:xlink="http://www.w3.org/1999/xlink" width="381px" height="459px"  viewBox="0 0 381 459" version="1.1">

<g id="surface1">
<path id="affi" style="fill-rule:evenodd;fill:rgb(216, 63, 89);fill-opacity:1;stroke-width:0.1;stroke-linecap:butt;stroke-linejoin:round;stroke:rgb(0%,0%,0%);stroke-opacity:1;stroke-miterlimit:4;" d="M 88.897177 344.734725 L 89.108391 346.267021 L 88.243977 347.93826 L 86.114233 349.842377 L 84.702226 349.515565 L 84.805877 351.756278 L 85.414096 351.863911 L 86.716585 352.355107 L 87.342405 352.928494 L 87.363917 352.94415 L 87.602511 353.116362 L 88.594045 353.822823 L 88.955848 353.766071 L 90.017786 353.380551 L 92.435017 352.856087 L 93.412861 352.679961 L 94.005434 352.709315 L 94.349636 352.740627 L 94.482622 352.768024 L 94.637122 352.801292 L 94.961766 352.885441 L 94.993057 352.897183 L 95.264898 352.996988 L 95.69906 353.223994 L 95.790978 352.963719 L 95.845737 352.724971 L 96.017838 351.871739 L 96.029572 351.732795 L 96.037394 351.625162 L 96.03935 351.605593 L 96.041306 351.572325 L 96.043262 351.511659 L 96.043262 351.398156 L 96.045217 351.282695 L 96.027616 350.965669 L 95.990458 350.623202 L 95.941566 350.288562 L 95.92592 350.204413 L 95.800756 349.957837 L 92.569959 344.813003 L 92.124062 344.72494 L 91.725102 344.681887 L 90.956517 345.016527 L 89.395877 345.053709 L 89.129904 345.022397 Z M 88.897177 344.734725 " transform="matrix(1.997379,0,0,1.996086,-75.28399,-516.694414)"/>
<path id="mozzecane" style="fill-rule:evenodd;fill:rgb(216, 63, 89);fill-opacity:1;stroke-width:0.1;stroke-linecap:butt;stroke-linejoin:round;stroke:rgb(0%,0%,0%);stroke-opacity:1;stroke-miterlimit:4;" d="M 102.968353 428.083381 L 103.40056 427.525649 L 103.738894 425.236012 L 103.625464 425.065757 L 103.549193 424.911157 L 103.502256 424.81331 L 103.488566 424.680237 L 103.459231 423.498236 L 103.5003 423.063792 L 103.795609 421.879835 L 104.536815 420.719361 L 104.755852 420.384721 L 104.798877 420.318185 L 105.845171 420.095092 L 106.515972 420.281003 L 107.276734 420.695877 L 109.799572 420.155758 L 112.76244 418.167492 L 112.891515 417.987452 L 112.334144 416.887643 L 109.267625 414.243798 L 109.201131 413.416006 L 109.079879 412.697803 L 108.925379 412.421873 L 108.91169 412.40426 L 108.751323 412.208565 L 108.508818 411.94829 L 108.049231 411.564727 L 106.707629 412.046137 L 104.742162 412.001128 L 101.331442 413.674324 L 97.826849 415.79762 L 95.638434 414.768261 L 95.083019 414.423837 L 94.66059 414.063758 L 92.622763 415.754567 L 91.950006 416.357309 L 91.96174 416.36905 L 93.444152 417.719349 L 94.202959 418.412111 L 98.437024 422.241871 L 98.403777 422.429739 L 98.352929 422.817216 L 98.393999 423.085319 L 98.450714 423.382776 L 98.51134 423.556945 L 101.775384 427.339738 Z M 102.968353 428.083381 " transform="matrix(1.997379,0,0,1.996086,-75.28399,-516.694414)"/>
<path id="valeggio sul mincio" style="fill-rule:nonzero;fill:rgb(216, 63, 89);fill-opacity:1;stroke-width:0.1;stroke-linecap:butt;stroke-linejoin:round;stroke:rgb(0%,0%,0%);stroke-opacity:1;stroke-miterlimit:4;" d="M 91.950006 416.357309 L 92.622763 415.754567 L 91.480641 414.37687 L 89.886755 413.04027 L 89.683364 412.895456 L 89.127948 412.232048 L 88.842418 411.210518 L 88.906955 411.136154 L 88.97736 411.055918 L 89.581668 410.496229 L 89.878932 410.298577 L 91.345699 408.770195 L 92.781174 407.149837 L 92.878958 407.001108 L 93.557582 405.854333 L 93.612341 405.584273 L 93.48131 405.539263 L 93.36788 405.535349 L 93.152754 405.519694 L 92.945451 405.431631 L 92.773351 405.292687 L 92.478042 404.983488 L 92.368523 404.817147 L 92.049746 404.306382 L 91.950006 404.028494 L 91.926538 403.899335 L 92.307897 401.993261 L 92.458485 401.644923 L 92.223803 401.480539 L 90.647518 398.198726 L 90.504753 397.705574 L 90.52431 397.494223 L 90.555601 397.267216 L 90.925226 396.239815 L 91.034744 396.100871 L 91.189244 395.995195 L 91.42197 395.86995 L 92.055613 395.590106 L 92.589516 395.63903 L 92.546491 395.566622 L 92.511289 395.505957 L 92.421327 395.378755 L 91.12275 394.695778 L 90.152729 394.916913 L 89.97085 394.965837 L 89.820262 395.004976 L 89.751813 395.026503 L 89.632516 395.065642 L 89.612959 395.141963 L 89.609047 395.2085 L 89.652073 395.296563 L 89.720522 395.412023 L 89.867198 395.558795 L 90.004096 395.72905 L 90.074501 395.932573 L 90.021698 396.194805 L 89.800705 396.412027 L 89.268758 396.760365 L 89.014518 396.850385 L 88.772013 396.822987 L 88.586223 396.772106 L 88.513862 396.713398 L 86.734186 394.351353 L 86.345004 393.33178 L 86.282422 393.089118 L 86.258954 392.893422 L 86.239397 392.701641 L 86.262865 392.511816 L 86.352827 392.312207 L 83.755673 391.055842 L 82.157876 388.793602 L 81.465562 388.511801 L 80.012486 388.128238 L 79.048331 387.954069 L 78.799959 388.192817 L 79.040509 388.453092 L 79.107002 388.599864 L 79.728911 391.394395 L 79.744556 391.503984 L 79.756291 391.642928 L 79.744556 391.766216 L 79.715221 391.869935 L 79.578323 392.273068 L 79.476627 392.558783 L 79.386665 392.809273 L 79.701531 392.956045 L 79.678063 393.05585 L 79.621348 393.255459 L 79.468804 393.730999 L 79.394488 393.950178 L 79.2439 394.259377 L 77.52485 397.171325 L 75.723662 398.462915 L 75.563295 398.529452 L 75.664991 398.830823 L 75.921186 399.554896 L 76.177381 400.051962 L 76.584164 400.556857 L 77.006593 401.069579 L 77.229541 401.312241 L 77.434889 401.509894 L 77.669571 401.594043 L 77.912077 401.644923 L 78.133069 401.64101 L 78.303214 401.660579 L 78.383397 401.668407 L 78.436201 401.674278 L 78.512473 401.693847 L 78.668928 401.734943 L 78.823427 401.80148 L 78.815605 401.879758 L 78.70413 402.093066 L 76.701506 404.529475 L 74.42704 405.709518 L 74.10044 405.781926 L 73.857935 405.799538 L 73.214514 405.807366 L 73.449196 408.981547 L 73.636942 409.077437 L 75.127177 409.521666 L 75.745174 409.666481 L 75.862515 409.666481 L 75.958344 409.537322 L 76.026793 409.402292 L 76.1324 409.341626 L 76.38664 409.263348 L 76.591987 409.208553 L 78.882098 411.214432 L 78.97206 411.623435 L 78.974015 411.637134 L 78.985749 411.713455 L 78.981838 411.734982 L 78.876231 412.631267 L 78.799959 413.016787 L 78.537897 414.079413 L 78.371663 414.435579 L 77.227586 416.116603 L 77.241276 416.122474 L 77.243231 416.124431 L 77.360573 416.187054 L 77.56592 416.22815 L 77.822115 416.237934 L 78.125247 416.202709 L 79.153939 416.030497 L 79.562677 415.918951 L 79.830607 415.791749 L 79.977283 415.627365 L 80.098536 415.43754 L 80.229567 415.41797 L 80.432959 415.453196 L 80.757603 415.519732 L 81.031399 415.61758 L 81.213278 415.7076 L 81.870389 416.237934 L 81.905592 416.290772 L 81.999465 416.421888 L 82.036623 416.635196 L 82.347577 418.752621 L 82.374957 419.108787 L 82.310419 419.468867 L 82.247837 419.781979 L 82.153964 420.089221 L 81.991642 420.453215 L 81.870389 420.715447 L 81.727624 421.020732 L 81.561391 421.676311 L 81.471429 422.288838 L 81.444049 422.889623 L 81.459695 423.010954 L 83.206124 424.128376 L 85.357381 422.216431 L 91.950006 416.359266 Z M 91.950006 416.357309 " transform="matrix(1.997379,0,0,1.996086,-75.28399,-516.694414)"/>
<path id="castelnuovo del garda" style="fill-rule:evenodd;fill:rgb(216, 63, 89);fill-opacity:1;stroke-width:0.1;stroke-linecap:butt;stroke-linejoin:round;stroke:rgb(0%,0%,0%);stroke-opacity:1;stroke-miterlimit:4;" d="M 64.992801 375.77594 L 75.029392 379.384564 L 75.195626 379.44523 L 75.244518 379.464799 L 75.735396 379.656581 L 76.38664 380.122336 L 77.949235 381.609622 L 78.295391 381.942304 L 78.61808 382.267158 L 78.602435 383.813153 L 78.246499 384.899262 L 77.824071 385.852299 L 77.747799 386.065607 L 77.886653 386.852303 L 78.322771 387.382638 L 79.048331 387.954069 L 80.012486 388.128238 L 81.465562 388.511801 L 82.157876 388.793602 L 83.755673 391.055842 L 86.352827 392.312207 L 86.616845 391.975611 L 86.700939 391.828839 L 86.83197 391.543124 L 86.880863 391.433534 L 86.863261 389.95799 L 86.804591 389.844487 L 86.597288 389.290669 L 86.558174 389.108672 L 86.497548 388.809258 L 86.487769 388.717281 L 86.497548 388.449178 L 86.554263 388.233913 L 86.640313 388.093012 L 90.401101 383.411977 L 92.337232 381.224102 L 92.562137 381.026449 L 93.043236 380.603747 L 93.839201 380.096896 L 94.639077 379.815094 L 95.069329 379.484369 L 95.311834 379.012743 L 95.644301 378.259315 L 95.863338 377.390427 L 95.882895 376.79747 L 95.880939 376.574377 L 95.409619 376.351285 L 94.948076 375.924668 L 94.36137 374.8503 L 94.173624 374.333664 L 94.122776 374.159495 L 93.9937 373.556753 L 93.983922 373.363015 L 94.00739 373.153621 L 94.024991 373.026419 L 93.954587 372.910958 L 93.573227 372.327786 L 93.086261 372.218196 L 90.790283 371.789623 L 90.581024 371.860074 L 89.939559 372.108607 L 89.875021 372.161445 L 88.852196 373.928575 L 87.590777 376.063612 L 86.738097 376.881619 L 84.479277 379.869889 L 84.084228 381.750522 L 81.635707 381.210403 L 81.428404 381.089072 L 80.382111 380.12625 L 80.386022 379.865975 L 80.444693 379.69572 L 80.524876 379.472627 L 80.722401 379.181041 L 80.847565 378.912938 L 80.822141 378.697673 L 80.734135 378.500021 L 80.305839 377.635047 L 80.139605 377.566553 L 79.861898 377.49806 L 76.834492 376.828781 L 76.38664 376.691795 L 64.746384 373.167319 Z M 64.992801 375.77594 " transform="matrix(1.997379,0,0,1.996086,-75.28399,-516.694414)"/>
<path id="lazise" style="fill-rule:evenodd;fill:rgb(163, 73, 164);fill-opacity:1;stroke-width:0.1;stroke-linecap:butt;stroke-linejoin:round;stroke:rgb(0%,0%,0%);stroke-opacity:1;stroke-miterlimit:4;" d="M 90.790283 371.789623 L 91.355477 370.574354 L 92.024322 367.797436 L 91.486508 366.863968 L 90.131216 365.813084 L 89.800705 365.660441 L 88.852196 365.137934 L 87.551664 363.079218 L 86.761566 361.634986 L 86.64618 361.263164 L 85.705494 360.425588 L 83.472098 360.014627 L 83.03598 360.126173 L 82.261527 360.505823 L 82.167654 360.656508 L 81.921237 360.80328 L 81.668954 360.858075 L 81.645485 360.861988 L 81.569213 360.87373 L 81.551612 360.875687 L 76.38664 361.64477 L 63.98171 362.30035 L 64.038425 363.169238 L 64.746384 373.167319 L 76.38664 376.691795 L 76.834492 376.828781 L 79.861898 377.49806 L 80.139605 377.566553 L 80.305839 377.635047 L 80.734135 378.500021 L 80.822141 378.697673 L 80.847565 378.910981 L 80.722401 379.179084 L 80.524876 379.472627 L 80.444693 379.69572 L 80.386022 379.864018 L 80.382111 380.12625 L 81.428404 381.089072 L 81.635707 381.210403 L 84.084228 381.748565 L 84.479277 379.869889 L 86.738097 376.881619 L 87.590777 376.063612 L 88.852196 373.928575 L 89.875021 372.161445 L 89.939559 372.108607 L 90.581024 371.858117 Z M 90.790283 371.789623 " transform="matrix(1.997379,0,0,1.996086,-75.28399,-516.694414)"/>
<path id="nogarole rocca" style="fill-rule:nonzero;fill:rgb(255, 242, 0);fill-opacity:1;stroke-width:0.1;stroke-linecap:butt;stroke-linejoin:round;stroke:rgb(0%,0%,0%);stroke-opacity:1;stroke-miterlimit:4;" d="M 119.45676 422.576511 L 118.475005 420.598029 L 116.742265 418.480604 L 116.640569 418.369058 L 116.491937 418.235985 L 116.382418 418.149879 L 116.306147 418.13618 L 112.891515 417.987452 L 112.76244 418.167492 L 109.799572 420.155758 L 107.276734 420.695877 L 106.515972 420.281003 L 105.845171 420.095092 L 104.798877 420.318185 L 104.755852 420.384721 L 104.536815 420.719361 L 103.795609 421.879835 L 103.5003 423.063792 L 103.459231 423.498236 L 103.488566 424.680237 L 103.502256 424.81331 L 103.549193 424.911157 L 103.625464 425.065757 L 103.738894 425.236012 L 103.40056 427.525649 L 102.968353 428.083381 L 102.921417 429.296693 L 102.921417 429.508044 L 102.927284 429.688084 L 102.942929 429.770276 L 102.962486 429.868124 L 103.856236 431.770283 L 104.239551 432.58242 L 107.108545 433.044261 L 109.854331 433.69397 L 110.583803 434.954249 L 111.037523 435.25562 L 111.843266 435.007086 L 112.412371 434.787908 L 113.165311 433.51393 L 114.465844 431.06578 L 114.673147 430.656776 L 115.19336 429.59415 L 116.151647 427.449328 L 116.241609 427.099033 L 116.222052 426.836801 L 116.104711 426.74091 L 116.274855 425.889635 L 117.573432 423.247746 L 117.706419 423.179253 L 117.712286 423.175339 L 117.757267 423.151855 L 117.986083 423.042266 L 118.15036 422.983557 L 118.240322 423.003127 L 118.271613 423.073577 L 118.255968 423.202736 L 118.224677 423.402345 L 118.275524 423.588256 L 118.406556 423.764382 L 118.932636 424.33777 L 119.081268 424.435617 L 119.179052 424.376909 L 119.599525 423.899412 L 119.744246 423.703716 L 119.744246 423.539332 L 119.726645 423.320153 Z M 119.45676 422.576511 " transform="matrix(1.997379,0,0,1.996086,-75.28399,-516.694414)"/>
<path id="lago" style="fill-rule:nonzero;fill:#529eff;fill-opacity:1,stroke-width:2;stroke-linecap:butt;stroke-linejoin:round;stroke:rgb(0%,0%,0%);stroke-opacity:1;stroke-miterlimit:4;" d="M 511.643004 211.915678 L 515.428564 215.575663 L 519.09131 219.367146 L 524.27117 220.630973 L 526.539616 221.135043 L 527.428211 224.919219 L 532.095142 226.058856 L 532.095142 230.726981 L 531.589438 234.898342 L 529.068139 238.814015 L 525.282579 248.405953 L 521.114128 260.905425 L 521.114128 260.781234 L 520.355571 271.264426 L 518.838458 277.82464 L 517.957087 284.647846 L 514.164302 290.70399 L 505.834625 297.651388 L 505.581773 301.311374 L 504.317511 304.467289 L 500.654765 307.119135 L 495.099239 310.65493 L 493.083645 314.446412 L 489.796565 323.410089 L 486.769562 332.629454 L 485.12241 339.825234 L 483.482482 344.120786 L 481.71974 347.021014 L 478.179808 346.641135 L 476.164214 348.788911 L 475.152805 352.828775 L 477.421251 355.232239 L 476.792733 358.892224 L 474.011357 364.071725 L 470.854316 367.476023 L 466.693089 370.763435 L 463.911714 372.151454 L 463.283196 375.563057 L 463.7889 378.967355 L 461.766082 382.123271 L 456.586222 386.798701 L 454.946294 392.730654 L 450.655029 399.926434 L 447.620802 404.601865 L 445.222317 410.029748 L 442.448166 414.201108 L 439.038272 420.51294 L 436.134083 424.428613 L 431.459928 431.120323 L 427.797182 438.695982 L 425.023031 442.984228 L 422.241655 447.031398 L 421.360285 450.187314 L 419.843171 454.607057 L 417.950391 456.879024 L 412.900569 462.810977 L 410.249232 467.354911 L 407.850748 469.758374 L 406.586486 472.658603 L 405.705115 476.325893 L 403.559483 479.730191 L 401.406626 485.537953 L 398.502437 491.981281 L 394.846915 495.896954 L 394.969729 501.828907 L 393.582654 509.404566 L 391.054131 512.94036 L 387.897089 518.62393 L 386.257161 522.539604 L 385.245752 526.579468 L 385.122938 531.751663 L 385.498604 535.923024 L 386.510014 536.551285 L 388.402794 536.302903 L 391.184169 534.155127 L 394.088358 531.627472 L 397.498252 530.495141 L 402.042369 529.983766 L 405.575077 532.767108 L 409.237823 534.155127 L 411.766346 535.923024 L 411.130603 539.458818 L 410.754937 542.110664 L 413.78194 546.654598 L 416.433277 552.213978 L 417.444686 556.502224 L 418.456095 561.426037 L 419.337466 565.84578 L 419.337466 567.233799 L 422.624546 568.249244 L 424.011622 572.157612 L 423.758769 578.476748 L 423.383103 583.020683 L 425.145845 588.068687 L 426.287292 595.644345 L 427.674368 600.064089 L 428.685777 605.243589 L 429.444334 615.726781 L 424.64014 622.286995 L 421.483099 629.110202 L 418.708948 634.793772 L 416.563315 639.841776 L 416.310463 643.625953 L 413.406274 644.765589 L 413.153421 646.913365 L 411.88916 651.961369 L 406.962152 656.001233 L 403.429445 660.172594 L 402.042369 665.600477 L 403.935149 674.060084 L 403.935149 677.471688 L 399.766698 674.944033 L 393.076949 668.128132 L 385.498604 664.212458 L 382.724454 661.056543 L 369.460544 657.769131 L 364.287909 655.752851 L 361.889424 651.837178 L 360.242272 649.185332 L 357.215269 650.829038 L 353.552523 652.721127 L 347.368478 649.94509 L 341.682913 647.161747 L 341.177209 639.337706 L 339.667319 633.654136 L 339.912947 629.234393 L 341.430061 626.326859 L 341.560099 623.046752 L 339.912947 622.038613 L 339.912947 619.766646 L 341.935766 616.983303 L 340.042986 614.711336 L 337.767315 610.42309 L 336.38024 610.42309 L 332.970346 613.447509 L 333.981755 615.975164 L 335.498869 618.378627 L 337.897353 620.394907 L 339.161615 622.79837 L 338.525872 624.434771 L 338.150206 628.474635 L 337.644501 636.430173 L 335.246016 639.337706 L 330.701899 641.989552 L 328.173376 645.525346 L 324.257778 650.573351 L 317.185138 652.341248 L 305.192715 648.301383 L 300.265707 647.541626 L 291.430325 645.021277 L 288.396098 640.090158 L 288.901802 630.49822 L 288.020431 625.442911 L 285.491908 623.426631 L 279.430678 623.426631 L 274.633708 622.542683 L 271.353853 619.890837 L 267.943959 614.083075 L 269.713925 609.663332 L 274.633708 602.971622 L 280.066421 597.032364 L 286.250465 591.224602 L 292.058844 587.564617 L 297.491556 584.153013 L 301.529969 582.764995 L 302.541378 580.748716 L 301.407155 577.08873 L 301.154302 573.552935 L 302.541378 570.645402 L 307.338347 566.101468 L 310.372575 564.077883 L 312.012502 564.581953 L 313.905282 560.797776 L 316.180953 559.533949 L 317.568029 555.998154 L 316.932286 551.834099 L 314.158135 550.44608 L 311.001093 548.802374 L 309.108313 547.282859 L 310.871055 544.506822 L 310.625427 542.738925 L 307.591199 544.382631 L 304.564196 545.894841 L 301.529969 545.010892 L 298.120075 542.614734 L 295.72159 539.203131 L 295.851628 536.551285 L 299.131484 532.511421 L 302.917044 528.215869 L 305.315529 528.347365 L 308.096904 524.555883 L 311.506798 524.555883 L 311.629612 521.655655 L 313.65243 520.13614 L 316.679433 519.507879 L 316.180953 518.499739 L 311.75965 517.988364 L 307.468385 508.520617 L 300.771412 507.512477 L 292.441735 508.140738 L 287.261875 509.024687 L 281.959201 511.296654 L 277.415084 511.296654 L 274.763747 510.792584 L 274.763747 505.868771 L 276.656527 501.573219 L 281.453496 501.449028 L 284.86339 500.820767 L 287.139061 497.913234 L 294.710181 495.517075 L 297.744408 494.129057 L 301.154302 493.624987 L 301.407155 491.725593 L 308.349756 488.569678 L 313.399578 483.901552 L 314.786653 482.761916 L 321.100736 482.886107 L 326.40341 476.070206 L 330.196195 471.774654 L 335.246016 474.046621 L 340.671504 476.829963 L 343.322841 476.574276 L 345.974178 473.41836 L 346.22703 469.626878 L 347.62133 463.446543 L 348.379887 459.779252 L 351.284076 456.879024 L 357.720973 451.071262 L 361.38372 447.27978 L 365.674984 443.364107 L 368.709212 439.075861 L 369.843435 436.292518 L 371.736215 436.044136 L 372.364734 433.772169 L 370.471954 432.128463 L 370.219101 430.484757 L 372.494772 427.964407 L 374.640404 421.141201 L 378.556003 417.357024 L 382.977306 412.301715 L 384.9929 409.145799 L 388.908498 405.610004 L 392.946911 403.842107 L 396.103952 400.941879 L 397.873918 398.034346 L 401.03096 395.88657 L 403.306631 394.754239 L 406.333634 392.350775 L 408.984971 388.566599 L 411.383455 385.410683 L 413.153421 380.735252 L 416.816168 377.959215 L 421.360285 374.29923 L 426.03444 370.763435 L 429.567148 368.615659 L 431.71278 367.855902 L 432.095671 364.955674 L 434.241303 362.807898 L 435.375526 360.535931 L 436.89264 357.628397 L 438.409754 355.984691 L 439.666791 353.712724 L 440.555386 349.548668 L 443.459575 348.920407 L 442.823833 347.021014 L 442.448166 344.624856 L 445.222317 340.4608 L 448.256545 338.437215 L 450.402177 335.661178 L 453.42918 330.985748 L 454.693442 327.325762 L 457.474817 324.673916 L 461.007525 320.758243 L 462.900305 318.990346 L 462.647453 314.446412 L 462.647453 311.794566 L 464.417419 309.018529 L 465.934533 306.235186 L 467.198794 303.334958 L 467.57446 298.535337 L 469.850131 295.123733 L 470.731502 292.727575 L 473.635691 292.223505 L 473.758505 286.160056 L 475.658509 282.755758 L 478.685513 279.724033 L 480.708331 277.452066 L 485.375262 275.80836 L 490.555122 272.520948 L 496.110648 269.240841 L 498.256281 266.588995 L 498.256281 262.045061 L 498.003428 255.097663 L 501.54336 252.577314 L 502.301917 247.901883 L 504.317511 244.99435 L 504.823216 242.342504 L 504.064659 239.822155 L 502.930436 238.178449 L 503.688993 232.874757 L 505.451735 231.10686 L 505.957439 227.066995 L 507.098887 221.514922 L 506.846034 217.343561 L 508.738814 213.427888 L 509.750224 211.65999 Z M 511.643004 211.915678 " transform="matrix(0.540706,0,0,0.53471,-144.335933,-112.637672)"/>
</g>
</svg>